<?xml version="1.0" standalone="no"?>
<!DOCTYPE svg PUBLIC "-//W3C//DTD SVG 20010904//EN"
 "http://www.w3.org/TR/2001/REC-SVG-20010904/DTD/svg10.dtd">
<svg version="1.0" xmlns="http://www.w3.org/2000/svg"
 width="506.000000pt" height="506.000000pt" viewBox="0 0 506.000000 506.000000"
 preserveAspectRatio="xMidYMid meet">
<metadata>
Created by potrace 1.14, written by Peter Selinger 2001-2017
</metadata>
<g transform="translate(0.000000,506.000000) scale(0.100000,-0.100000)"
fill="#000000" stroke="none">
<path d="M180 4790 c-3 -219 1 -1596 5 -1690 8 -209 20 -405 30 -465 3 -16 7
-57 10 -90 3 -33 7 -71 9 -85 2 -14 7 -52 10 -85 9 -77 53 -349 71 -440 8 -38
16 -81 19 -95 42 -231 214 -780 316 -1015 9 -22 25 -59 35 -82 10 -24 25 -43
33 -43 8 0 74 -58 146 -129 72 -71 184 -180 248 -243 l118 -113 337 2 c186 1
347 2 359 2 17 1 30 23 73 132 129 324 247 706 306 994 21 99 23 111 31 155 4
19 8 44 10 55 18 98 49 307 59 395 3 30 8 73 11 95 3 22 7 60 9 85 2 25 6 68
9 95 23 223 27 442 27 1250 0 407 0 761 0 786 -1 51 27 20 -353 392 -76 74
-138 141 -138 149 0 9 -6 18 -12 20 -11 3 -773 2 -800 -1 -5 -1 -8 -43 -8 -93
l0 -93 -81 82 c-44 45 -78 87 -74 93 8 13 45 12 -417 13 l-398 2 0 -35z m706
-88 c-6 -10 -19 -733 -19 -1122 -1 -396 8 -616 37 -890 3 -25 8 -71 11 -104 3
-32 7 -61 9 -65 2 -3 7 -34 10 -69 10 -92 52 -290 87 -411 17 -58 34 -116 36
-129 3 -12 9 -22 13 -22 17 0 120 394 136 523 2 18 6 50 9 72 11 67 13 88 20
155 4 36 8 72 10 81 4 17 16 166 21 249 18 309 21 677 9 1210 -4 179 -8 366
-9 415 -1 50 0 96 2 103 3 9 71 12 294 12 l289 0 -4 -892 c-2 -491 -7 -922
-10 -958 -3 -36 -9 -99 -12 -140 -4 -41 -8 -88 -10 -105 -2 -16 -6 -57 -10
-89 -7 -68 -14 -122 -20 -151 -2 -11 -7 -45 -10 -75 -3 -30 -8 -62 -10 -70 -2
-8 -7 -35 -10 -60 -3 -25 -10 -67 -15 -95 -5 -27 -12 -65 -15 -84 -3 -19 -7
-37 -9 -40 -2 -3 -7 -22 -10 -42 -7 -44 -42 -202 -56 -249 -5 -19 -21 -78 -36
-130 -41 -153 -121 -389 -187 -558 l-63 -157 -292 0 -292 0 -9 25 c-15 38 -98
252 -106 275 -5 11 -9 22 -10 25 0 3 -24 75 -52 160 -28 85 -59 182 -68 215
-9 33 -21 76 -26 95 -5 19 -12 46 -15 60 -3 14 -13 59 -24 100 -17 68 -58 267
-65 315 -1 11 -6 43 -10 70 -4 28 -8 52 -10 55 -2 3 -6 30 -10 60 -3 30 -8 66
-10 80 -23 141 -44 353 -61 625 -7 116 -14 1715 -7 1728 2 4 137 7 299 7 162
0 293 -3 290 -8z"/>
<path d="M3167 4823 c-1 0 -24 -4 -52 -7 -169 -19 -349 -140 -443 -296 -21
-35 -53 -119 -68 -175 -4 -16 -8 -842 -9 -1833 l-1 -1804 22 -8 c12 -5 69 -55
127 -112 58 -57 167 -163 241 -235 74 -73 140 -133 146 -134 5 0 182 -1 392
-2 l381 0 0 86 c0 48 2 87 6 87 3 0 47 -40 97 -88 l90 -87 385 2 c211 1 386 2
389 2 3 1 5 805 5 1789 -1 1939 2 1839 -57 1956 -51 102 -81 137 -301 351
-117 114 -235 235 -262 269 -102 130 -236 210 -390 232 -41 6 -693 13 -698 7z
m728 -126 c61 -15 157 -70 213 -122 72 -67 117 -141 140 -231 16 -66 17 -170
16 -1795 -1 -948 -2 -1726 -3 -1729 -1 -4 -546 -5 -574 -1 -4 0 -8 22 -7 49 1
53 1 299 0 412 -1 108 0 360 1 368 1 4 1 12 0 17 -1 6 -2 75 -1 155 1 80 2
150 1 155 0 6 -2 53 -3 105 l-3 95 -187 1 c-130 1 -188 -2 -191 -10 -2 -6 -3
-308 -2 -671 1 -363 0 -665 -2 -670 -4 -12 -567 -14 -578 -3 -4 4 -7 40 -7 80
1 40 1 822 2 1738 1 1580 2 1668 19 1722 33 101 98 190 194 262 38 28 154 79
166 72 3 -2 15 0 26 5 24 9 738 6 780 -4z"/>
<path d="M3429 4117 c-46 -12 -83 -40 -111 -85 l-23 -37 0 -617 0 -618 90 -1
c126 -1 289 2 292 5 6 6 5 345 -1 355 -4 5 -2 12 4 16 6 4 8 11 4 16 -5 9 -6
166 -1 386 1 51 -2 93 -6 93 -5 0 -6 4 -2 9 7 12 7 283 0 336 -6 43 -42 96
-82 122 -32 21 -119 32 -164 20z"/>
</g>
</svg>
